<svg xmlns="http://www.w3.org/2000/svg" viewBox="0 0 52 52"><path fill="#A3A3A3" d="M29.7 3c-3.8 0-7.4 1.9-9.5 4.9-.9-.4-2-.6-3-.6-3.6 0-6.7 2.5-7.6 5.8-4.2.2-7.6 3.7-7.6 8C2 25.5 5.5 29 9.9 29h31.5c4.7 0 8.6-3.9 8.6-8.6s-3.9-8.6-8.6-8.6h-.5C39.7 6.7 35.1 3 29.7 3z"/><path fill="#E6E6E6" d="M9.9 15.2c.5 0 1 .1 1.5.2v-.2c0-3.2 2.6-5.8 5.9-5.8 1.4 0 2.7.5 3.7 1.3C22.4 7.3 25.8 5 29.7 5c5.1 0 9.3 4 9.5 9.1.7-.2 1.4-.4 2.2-.4 3.6 0 6.6 3 6.6 6.6 0 3.6-3 6.6-6.6 6.6H9.9C6.6 27 4 24.3 4 21.1c0-3.2 2.6-5.9 5.9-5.9z"/><path fill="#15AADC" d="M21.3 46.4c-.2 0-.3 0-.5-.1-.6-.3-.9-1-.6-1.6l6-13.1c.3-.6 1-.9 1.6-.6.6.3.9 1 .6 1.6l-6 13.1c-.2.4-.7.7-1.1.7zm8-4.8c-.2 0-.4 0-.5-.1-.6-.3-.8-1-.5-1.6l2.4-4.8c.3-.6 1-.8 1.6-.5.6.3.8 1 .5 1.6L30.4 41c-.2.4-.6.6-1.1.6zm-12.5 0c-.2 0-.4 0-.5-.1-.6-.3-.8-1-.5-1.6l2.4-4.8c.3-.6 1-.8 1.6-.5.6.3.8 1 .5 1.6L17.9 41c-.2.4-.7.6-1.1.6zm-8.1 4.8c-.2 0-.3 0-.5-.1-.6-.3-.9-1-.6-1.6l6-13.1c.3-.6 1-.9 1.6-.6.6.3.9 1 .6 1.6l-6 13.1c-.2.4-.6.7-1.1.7zm25.1 0c-.2 0-.3 0-.5-.1-.6-.3-.9-1-.6-1.6l6-13.1c.3-.6 1-.9 1.6-.6.6.3.9 1 .6 1.6l-6 13.1c-.2.4-.6.7-1.1.7z"/></svg>