<svg xmlns="http://www.w3.org/2000/svg" width="500" height="500"><path fill="#8FCDF0" d="M277.691 396.208l-9.601-5.568 9.604-5.563c4.328-2.508 5.811-8.068 3.305-12.396a9.107 9.107 0 0 0-7.859-4.525 9.055 9.055 0 0 0-4.537 1.223l-9.531 5.52v-11.014c0-5.002-4.069-9.072-9.07-9.072-5.002 0-9.071 4.07-9.071 9.072v11.002l-9.519-5.52a9.055 9.055 0 0 0-4.543-1.227 9.106 9.106 0 0 0-7.854 4.521c-2.51 4.328-1.031 9.889 3.295 12.398l9.602 5.568-9.605 5.563c-4.328 2.506-5.81 8.066-3.304 12.395a9.103 9.103 0 0 0 7.858 4.527 9.075 9.075 0 0 0 4.537-1.223l9.532-5.521v11.016c0 5.002 4.069 9.07 9.071 9.07 5.001 0 9.07-4.068 9.07-9.07V406.38l9.518 5.521a9.073 9.073 0 0 0 4.543 1.225 9.102 9.102 0 0 0 7.854-4.521c1.216-2.096 1.543-4.539.921-6.881s-2.12-4.301-4.216-5.516z"/><path fill="#58A1D4" d="M150.052 401.259c-2.387 0-4.787-.799-6.77-2.439-4.523-3.742-5.157-10.441-1.415-14.965l30.333-36.666c3.742-4.525 10.443-5.158 14.966-1.416s5.157 10.443 1.415 14.967l-30.333 36.666a10.61 10.61 0 0 1-8.196 3.853zm169.009 0a10.59 10.59 0 0 1-6.771-2.439c-4.523-3.742-5.156-10.443-1.413-14.967l30.338-36.666c3.742-4.521 10.443-5.156 14.966-1.412 4.523 3.742 5.156 10.441 1.413 14.965l-30.338 36.666a10.608 10.608 0 0 1-8.195 3.853z"/><path fill="#FFF" d="M374.228 201.541c-5.784-.989-9.673-6.478-8.687-12.263.48-2.821.714-5.339.714-7.695 0-24.343-19.807-44.147-44.151-44.147-5.059 0-10.15.92-15.135 2.734a10.63 10.63 0 0 1-12.573-4.234c-16.582-25.754-44.704-41.13-75.227-41.13-49.363 0-89.522 40.156-89.522 89.514 0 2.2.167 4.48.344 6.896.377 5.15-2.999 9.878-8.007 11.137-22.713 5.707-38.576 26.019-38.576 49.394 0 28.139 22.877 51.029 50.996 51.029h231.155c28.141 0 51.034-22.891 51.034-51.029a50.824 50.824 0 0 0-42.365-50.206z"/><path fill="#808083" d="M387.499 182.929c.011-.45.016-.898.016-1.346 0-36.065-29.344-65.407-65.411-65.407-4.828 0-9.654.554-14.422 1.65-20.89-27.869-53.415-44.28-88.513-44.28-61.085 0-110.782 49.693-110.782 110.773v.077c-27.617 10.621-46.239 37.184-46.239 67.349 0 39.861 32.414 72.289 72.256 72.289h231.155c39.863 0 72.294-32.428 72.294-72.289a72.01 72.01 0 0 0-50.354-68.816zm-21.94 119.845H134.403c-28.119 0-50.996-22.891-50.996-51.029 0-23.375 15.863-43.687 38.576-49.394 5.008-1.259 8.384-5.986 8.007-11.137-.177-2.415-.344-4.695-.344-6.896 0-49.357 40.16-89.514 89.522-89.514 30.522 0 58.645 15.376 75.227 41.13a10.628 10.628 0 0 0 12.573 4.234c4.984-1.814 10.076-2.734 15.135-2.734 24.345 0 44.151 19.805 44.151 44.147 0 2.356-.233 4.874-.714 7.695-.986 5.785 2.902 11.273 8.687 12.263a50.822 50.822 0 0 1 42.365 50.204c.001 28.141-22.893 51.031-51.033 51.031z"/></svg>