<?xml version="1.0" encoding="utf-8"?>
<!-- Generator: Adobe Illustrator 16.0.0, SVG Export Plug-In . SVG Version: 6.00 Build 0)  -->
<!DOCTYPE svg PUBLIC "-//W3C//DTD SVG 1.1//EN" "http://www.w3.org/Graphics/SVG/1.1/DTD/svg11.dtd">
<svg version="1.1" id="Layer_2" xmlns="http://www.w3.org/2000/svg" xmlns:xlink="http://www.w3.org/1999/xlink" x="0px" y="0px"
	 width="500px" height="500px" viewBox="0 0 500 500" enable-background="new 0 0 500 500" xml:space="preserve">
<g id="Layer_3">
</g>
<g>
	<path fill="#8FCDF0" d="M277.691,396.208l-9.601-5.568l9.604-5.563c4.328-2.508,5.811-8.068,3.305-12.396
		c-1.617-2.791-4.628-4.525-7.859-4.525c-1.587,0-3.156,0.422-4.537,1.223l-9.531,5.52v-11.014c0-5.002-4.069-9.072-9.07-9.072
		c-5.002,0-9.071,4.07-9.071,9.072v11.002l-9.519-5.52c-1.382-0.803-2.953-1.227-4.543-1.227c-3.227,0-6.236,1.732-7.854,4.521
		c-2.51,4.328-1.031,9.889,3.295,12.398l9.602,5.568l-9.605,5.563c-4.328,2.506-5.81,8.066-3.304,12.395
		c1.616,2.793,4.628,4.527,7.858,4.527c1.587,0,3.156-0.424,4.537-1.223l9.532-5.521v11.016c0,5.002,4.069,9.07,9.071,9.07
		c5.001,0,9.07-4.068,9.07-9.07V406.38l9.518,5.521c1.382,0.801,2.953,1.225,4.543,1.225c3.229,0,6.237-1.732,7.854-4.521
		c1.216-2.096,1.543-4.539,0.921-6.881S279.787,397.423,277.691,396.208z"/>
	<g>
		<path fill="#58A1D4" d="M150.052,401.259c-2.387,0-4.787-0.799-6.77-2.439c-4.523-3.742-5.157-10.441-1.415-14.965l30.333-36.666
			c3.742-4.525,10.443-5.158,14.966-1.416s5.157,10.443,1.415,14.967l-30.333,36.666
			C156.146,399.946,153.11,401.259,150.052,401.259z"/>
	</g>
	<g>
		<path fill="#58A1D4" d="M319.061,401.259c-2.387,0-4.788-0.799-6.771-2.439c-4.523-3.742-5.156-10.443-1.413-14.967l30.338-36.666
			c3.742-4.521,10.443-5.156,14.966-1.412c4.523,3.742,5.156,10.441,1.413,14.965l-30.338,36.666
			C325.154,399.946,322.119,401.259,319.061,401.259z"/>
	</g>
	<path fill="#FFFFFF" d="M374.228,201.541c-5.784-0.989-9.673-6.478-8.687-12.263c0.48-2.821,0.714-5.339,0.714-7.695
		c0-24.343-19.807-44.147-44.151-44.147c-5.059,0-10.15,0.92-15.135,2.734c-4.671,1.698-9.887-0.062-12.573-4.234
		c-16.582-25.754-44.704-41.13-75.227-41.13c-49.363,0-89.522,40.156-89.522,89.514c0,2.2,0.167,4.48,0.344,6.896
		c0.377,5.15-2.999,9.878-8.007,11.137c-22.713,5.707-38.576,26.019-38.576,49.394c0,28.139,22.877,51.029,50.996,51.029h231.155
		c28.141,0,51.034-22.891,51.034-51.029C416.593,226.854,398.775,205.74,374.228,201.541z"/>
	<path fill="#808083" d="M387.499,182.929c0.011-0.45,0.016-0.898,0.016-1.346c0-36.065-29.344-65.407-65.411-65.407
		c-4.828,0-9.654,0.554-14.422,1.65c-20.89-27.869-53.415-44.28-88.513-44.28c-61.085,0-110.782,49.693-110.782,110.773
		c0,0.025,0,0.052,0,0.077c-27.617,10.621-46.239,37.184-46.239,67.349c0,39.861,32.414,72.289,72.256,72.289h231.155
		c39.863,0,72.294-32.428,72.294-72.289C437.853,219.831,417.191,192.299,387.499,182.929z M365.559,302.774H134.403
		c-28.119,0-50.996-22.891-50.996-51.029c0-23.375,15.863-43.687,38.576-49.394c5.008-1.259,8.384-5.986,8.007-11.137
		c-0.177-2.415-0.344-4.695-0.344-6.896c0-49.357,40.16-89.514,89.522-89.514c30.522,0,58.645,15.376,75.227,41.13
		c2.687,4.173,7.902,5.933,12.573,4.234c4.984-1.814,10.076-2.734,15.135-2.734c24.345,0,44.151,19.805,44.151,44.147
		c0,2.356-0.233,4.874-0.714,7.695c-0.986,5.785,2.902,11.273,8.687,12.263c24.548,4.199,42.365,25.313,42.365,50.204
		C416.593,279.884,393.699,302.774,365.559,302.774z"/>
</g>
</svg>
