<svg xmlns="http://www.w3.org/2000/svg" viewBox="0 0 512 512"><g fill="#f2b851"><path d="M86.448 210.64L0 254.576l86.448 43.936zm339.104 0v87.872L512 254.576zm-291.136-92.56l-96.112-12.896 46.208 85.248zm339.28-12.896l-96.112 12.896 49.904 72.352zM344.8 12.88l-73.216 63.584 81.44 33.04zm-177.6 0l-8.224 96.624 81.44-33.04zM38.304 406.816l96.112-12.896-49.904-72.352zm435.392 0l-46.208-85.248-49.904 72.352zm-120.672-4.32l-81.44 33.04L344.8 499.12zm-112.608 33.04l-81.44-33.04 8.224 96.624z"/><circle cx="254.496" cy="256" r="146.496"/></g></svg>